# xmcd
#
# Track frame offsets:
#	150
#	14953
#	31830
#	58433
#	68767
#	81578
#	108895
#	125585
#	141673
#	155299
#	172609
#	181951
#	199828
#	220684
#	232373
#
# Disc length: 3302 seconds
#
# Revision: 0
# Processed by: cddbd v1.5.1PL2 Copyright (c) Steve Scherf et al.
# Submitted via: dBpowerAMP V4.0
#
DISCID=e00ce40f
DTITLE=Blue Harlem - Talk To Me
DYEAR=1900
DGENRE=R&B
TTITLE0=5-10-15
TTITLE1=Halleluja I Love Her So
TTITLE2=My daddy Rocks Me
TTITLE3=He May Be Yours
TTITLE4=Till My Baby Comes Back To Me
TTITLE5=Talk To My Baby/ Log Gone Blues
TTITLE6=Bear Wallow
TTITLE7=Nobody But me
TTITLE8=Now Baby Or Never
TTITLE9=That's How I Feel About You
TTITLE10=Every Time I Hear That Mellow Saxophone
TTITLE11=I Just Want To Make Love To You
TTITLE12=Drown In My Own Tears
TTITLE13=I Can't Stop Now
TTITLE14=Gone walkin'
EXTD=
EXTT0=
EXTT1=
EXTT2=
EXTT3=
EXTT4=
EXTT5=
EXTT6=
EXTT7=
EXTT8=
EXTT9=
EXTT10=
EXTT11=
EXTT12=
EXTT13=
EXTT14=
PLAYORDER=
